<?xml version="1.0" standalone="no"?>
<!DOCTYPE svg PUBLIC "-//W3C//DTD SVG 20010904//EN"
 "http://www.w3.org/TR/2001/REC-SVG-20010904/DTD/svg10.dtd">
<svg version="1.0" xmlns="http://www.w3.org/2000/svg"
 width="326.000000pt" height="326.000000pt" viewBox="0 0 326.000000 326.000000"
 preserveAspectRatio="xMidYMid meet">
<metadata>
Created by potrace 1.11, written by Peter Selinger 2001-2013
</metadata>
<g transform="translate(0.000000,326.000000) scale(0.100000,-0.100000)"
fill="#000000" stroke="none">
<path d="M1998 2802 l-198 -117 0 -300 -1 -300 -23 55 c-62 148 -140 264 -246
363 -62 57 -124 99 -309 206 -294 170 -331 185 -430 179 -83 -5 -139 -28 -269
-112 -37 -23 -103 -62 -147 -86 -143 -79 -202 -152 -225 -280 -29 -158 43
-411 165 -586 25 -36 45 -68 45 -72 0 -10 -120 -75 -120 -65 0 4 -4 3 -8 -3
-4 -6 -27 -23 -51 -38 l-44 -28 6 -65 c27 -282 200 -564 447 -725 116 -76 402
-234 468 -258 58 -22 163 -27 208 -9 16 5 116 60 223 122 199 115 289 183 311
237 8 20 18 29 27 25 8 -3 110 -61 226 -129 117 -67 319 -185 450 -260 l237
-137 198 120 197 119 0 162 0 162 -252 146 c-138 81 -249 150 -247 153 2 4 -2
6 -9 5 -6 0 -40 15 -74 34 l-63 35 0 698 c0 652 -1 698 -18 715 -25 25 -247
152 -263 151 -8 0 -103 -53 -211 -117z m-47 -229 l99 -58 0 -703 0 -702 43
-26 c23 -14 170 -100 327 -192 l285 -167 3 -117 c1 -65 0 -118 -3 -118 -11 0
-660 383 -667 394 -4 6 -8 8 -8 4 0 -9 -172 91 -182 106 -9 13 -11 1636 -2
1636 4 0 51 -26 105 -57z m-1400 15 c79 -36 432 -247 509 -304 57 -43 170
-167 170 -186 0 -5 9 -17 20 -28 66 -66 187 -421 143 -420 -5 0 -50 26 -102
58 l-94 57 -19 68 c-24 89 -40 120 -97 180 -55 60 -107 95 -314 215 -183 107
-225 122 -279 99 -128 -54 -106 -283 42 -427 40 -40 117 -90 274 -180 275
-158 338 -210 444 -373 108 -168 156 -321 150 -481 -3 -91 -6 -107 -34 -156
-45 -79 -105 -115 -193 -115 -80 0 -129 21 -379 167 -208 120 -268 164 -364
266 -119 128 -213 322 -233 484 l-7 57 106 -61 c85 -48 107 -66 111 -87 3 -14
10 -45 15 -68 5 -23 11 -48 12 -55 2 -7 5 -15 8 -18 3 -3 23 -29 44 -58 32
-45 63 -72 142 -129 5 -5 26 -16 45 -27 19 -10 102 -56 184 -102 173 -96 213
-107 264 -72 42 29 71 81 71 129 0 96 -80 255 -159 318 -21 16 -114 73 -207
126 -93 54 -198 118 -234 143 -84 59 -186 161 -237 237 -43 64 -111 193 -117
222 -1 10 -7 29 -13 43 -22 53 -36 165 -31 244 8 129 51 209 133 248 54 26
150 20 226 -14z m1249 -1015 l0 -218 -34 76 c-36 84 -62 130 -114 202 -19 26
-31 51 -28 55 7 6 168 101 174 102 1 0 2 -98 2 -217z"/>
</g>
</svg>
